#define shade_toggled_width 15
#define shade_toggled_height 15
static unsigned char shade_toggled_bits[] = {
   0xe0, 0x03, 0xf8, 0x0f, 0xfc, 0x1f, 0xfe, 0x3f, 0xce, 0x39, 0x0f, 0x78,
   0x1f, 0x7c, 0x3f, 0x7e, 0xcf, 0x79, 0x0f, 0x78, 0x1e, 0x3c, 0x3e, 0x3e,
   0xfc, 0x1f, 0xf8, 0x0f, 0xe0, 0x03 };
