#define shade_width 15
#define shade_height 15
static unsigned char shade_bits[] = {
   0xe0, 0x03, 0xf8, 0x0f, 0x7c, 0x1f, 0x3e, 0x3e, 0x1e, 0x3c, 0x8f, 0x78,
   0x4f, 0x79, 0x3f, 0x7e, 0x1f, 0x7c, 0x8f, 0x78, 0xce, 0x39, 0xee, 0x3f,
   0xfc, 0x1f, 0xf8, 0x0f, 0xe0, 0x03 };
