#define max_width 15
#define max_height 15
static unsigned char max_bits[] = {
   0xe0, 0x03, 0xf8, 0x0f, 0xfc, 0x1f, 0x3e, 0x30, 0x3e, 0x30, 0x7f, 0x70,
   0xe7, 0x70, 0xc7, 0x71, 0x87, 0x73, 0x07, 0x7f, 0x06, 0x3e, 0x06, 0x3e,
   0xfc, 0x1f, 0xf8, 0x0f, 0xe0, 0x03 };
