#define close_width 19
#define close_height 19
static char close_bits[] = {
  0x00, 0x00, 0x00, 0x00, 0x00, 0x00, 0x04, 0x08, 0x00, 0x08, 0x04, 0x00, 
  0x10, 0x02, 0x00, 0x20, 0x01, 0x00, 0xC0, 0x00, 0x00, 0xC0, 0x00, 0x00, 
  0x20, 0x01, 0x00, 0x10, 0x02, 0x00, 0x08, 0x04, 0x00, 0x04, 0x08, 0x00, 
  0x00, 0x00, 0x00, 0x00, 0x00, 0x00, 0x00, 0x00, 0x00, 0x00, 0x00, 0x00, 
  0x00, 0x00, 0x00, 0x00, 0x00, 0x00, 0x00, 0x00, 0x00, };
