#define desk_toggled_width 13
#define desk_toggled_height 13
static char desk_toggled_bits[] = {
  0x00, 0x00, 0x84, 0x00, 0xCC, 0x00, 0xD8, 0x00, 0xB4, 0x00, 0x6C, 0x07, 
  0xDC, 0x00, 0xBC, 0x01, 0x4C, 0x03, 0x80, 0x02, 0x00, 0x00, 0x00, 0x00, 
  0x00, 0x00, };
