#define desk_width 13
#define desk_height 13
static char desk_bits[] = {
  0x00, 0x00, 0x40, 0x00, 0x66, 0x00, 0x7E, 0x00, 0xFE, 0x03, 0x7E, 0x00, 
  0x7E, 0x00, 0x66, 0x00, 0x40, 0x00, 0x00, 0x00, 0x00, 0x00, 0x00, 0x00, 
  0x00, 0x00, };
