#define max_width 19
#define max_height 19
static char max_bits[] = {
  0x00, 0x00, 0x00, 0x00, 0x00, 0x00, 0xFC, 0x0F, 0x00, 0x04, 0x08, 0x00, 
  0x04, 0x08, 0x00, 0x04, 0x08, 0x00, 0x04, 0x08, 0x00, 0x04, 0x08, 0x00, 
  0x04, 0x08, 0x00, 0x04, 0x08, 0x00, 0x04, 0x08, 0x00, 0xFC, 0x0F, 0x00, 
  0x00, 0x00, 0x00, 0x00, 0x00, 0x00, 0x00, 0x00, 0x00, 0x00, 0x00, 0x00, 
  0x00, 0x00, 0x00, 0x00, 0x00, 0x00, 0x00, 0x00, 0x00, };
