#define max_toggled_width 19
#define max_toggled_height 19
static char max_toggled_bits[] = {
  0x00, 0x00, 0x00, 0x00, 0x00, 0x00, 0xF0, 0x0F, 0x00, 0x10, 0x08, 0x00, 
  0xFC, 0x0B, 0x00, 0x04, 0x0A, 0x00, 0x04, 0x0A, 0x00, 0x04, 0x0A, 0x00, 
  0x04, 0x0A, 0x00, 0x04, 0x0E, 0x00, 0x04, 0x02, 0x00, 0xFC, 0x03, 0x00, 
  0x00, 0x00, 0x00, 0x00, 0x00, 0x00, 0x00, 0x00, 0x00, 0x00, 0x00, 0x00, 
  0x00, 0x00, 0x00, 0x00, 0x00, 0x00, 0x00, 0x00, 0x00, };
