<?xml version="1.0" encoding="UTF-8" standalone="no"?>
<!-- Created with Inkscape (http://www.inkscape.org/) -->

<svg
   xmlns:dc="http://purl.org/dc/elements/1.1/"
   xmlns:cc="http://creativecommons.org/ns#"
   xmlns:rdf="http://www.w3.org/1999/02/22-rdf-syntax-ns#"
   xmlns:svg="http://www.w3.org/2000/svg"
   xmlns="http://www.w3.org/2000/svg"
   xmlns:xlink="http://www.w3.org/1999/xlink"
   xmlns:sodipodi="http://sodipodi.sourceforge.net/DTD/sodipodi-0.dtd"
   xmlns:inkscape="http://www.inkscape.org/namespaces/inkscape"
   width="210mm"
   height="297mm"
   viewBox="0 0 210 297"
   version="1.1"
   id="svg8"
   inkscape:version="0.92.4 5da689c313, 2019-01-14"
   sodipodi:docname="Irvantri.svg">
  <defs
     id="defs2">
    <linearGradient
       inkscape:collect="always"
       id="linearGradient1005">
      <stop
         style="stop-color:#c9d5d5;stop-opacity:1"
         offset="0"
         id="stop1001" />
      <stop
         id="stop1022"
         offset="0.25127995"
         style="stop-color:#f3f6f6;stop-opacity:1" />
      <stop
         id="stop1020"
         offset="0.73356324"
         style="stop-color:#e1e8e8;stop-opacity:1" />
      <stop
         style="stop-color:#dde4e4;stop-opacity:1"
         offset="1"
         id="stop1003" />
    </linearGradient>
    <linearGradient
       inkscape:collect="always"
       xlink:href="#linearGradient1005"
       id="linearGradient1007"
       x1="-164.2491"
       y1="376.27271"
       x2="379.46967"
       y2="70.519371"
       gradientUnits="userSpaceOnUse" />
  </defs>
  <sodipodi:namedview
     id="base"
     pagecolor="#ffffff"
     bordercolor="#666666"
     borderopacity="1.0"
     inkscape:pageopacity="0.0"
     inkscape:pageshadow="2"
     inkscape:zoom="0.35355339"
     inkscape:cx="534.24496"
     inkscape:cy="320.44596"
     inkscape:document-units="mm"
     inkscape:current-layer="layer1"
     showgrid="false"
     inkscape:window-width="1366"
     inkscape:window-height="732"
     inkscape:window-x="0"
     inkscape:window-y="0"
     inkscape:window-maximized="1" />
  <metadata
     id="metadata5">
    <rdf:RDF>
      <cc:Work
         rdf:about="">
        <dc:format>image/svg+xml</dc:format>
        <dc:type
           rdf:resource="http://purl.org/dc/dcmitype/StillImage" />
        <dc:title />
      </cc:Work>
    </rdf:RDF>
  </metadata>
  <g
     inkscape:label="Layer 1"
     inkscape:groupmode="layer"
     id="layer1">
    <g
       id="g940"
       inkscape:export-xdpi="96"
       inkscape:export-ydpi="96">
      <rect
         y="70.519371"
         x="-164.2491"
         height="305.75333"
         width="543.71875"
         id="rect941"
         style="opacity:1;fill:url(#linearGradient1007);fill-opacity:1;stroke:#cad4df;stroke-width:0.2022582;stroke-opacity:1" />
      <g
         transform="matrix(0.6871505,0,0,0.6871505,22.523871,73.151515)"
         id="g928">
        <path
           style="fill:#c61e3f;fill-opacity:1;stroke-width:0.0982162"
           d="M 32.140486,223.69063 0.17143015,191.68832 H -24.849467 -49.87036 l -0.02321,-4.98447 -0.02321,-4.98447 -0.05179,5.05813 -0.05179,5.05814 -0.02321,-5.13197 -0.02321,-5.13197 27.770634,0.0248 c 15.8112913,0.0141 27.7547842,0.0617 27.7338375,0.11062 -0.058267,0.13603 47.0603125,47.2052 47.2547525,47.2052 0.164188,0 0.171336,-1.14784 0.147403,-23.67011 l -0.02516,-23.6701 h 10.140822 c 6.695075,0 10.140823,0.0334 10.140823,0.0982 0,0.054 -0.0442,0.0982 -0.09822,0.0982 -0.0653,0 -0.09822,12.35887 -0.09822,36.88018 0,24.52131 0.03291,36.88018 0.09822,36.88018 0.05402,0 0.09822,0.0442 0.09822,0.0982 0,0.0643 -1.552494,0.0926 -4.493391,0.082 l -4.493392,-0.0162 z"
           id="path866"
           inkscape:connector-curvature="0" />
        <path
           style="fill:#12a1b4;fill-opacity:1;stroke-width:0.0982162"
           d="m 75.257079,255.62707 c 0,-0.054 0.0442,-0.0982 0.09822,-0.0982 0.0653,0 0.09822,-12.35887 0.09822,-36.88018 0,-24.52131 -0.03291,-36.88018 -0.09822,-36.88018 -0.05402,0 -0.09822,-0.0444 -0.09822,-0.0987 0,-0.0656 2.972268,-0.0903 8.864012,-0.0737 6.198376,0.0175 8.858463,0.0565 8.845548,0.12958 -0.01015,0.0575 14.398411,14.52114 32.019041,32.14146 l 32.0375,32.03695 70.39591,-0.0247 70.3959,-0.0247 v 4.93543 4.93543 l -73.88314,-0.0246 c -52.16714,-0.0174 -73.87771,-0.0553 -73.86466,-0.12915 0.0302,-0.17099 -54.242735,-54.38612 -54.393732,-54.33579 -0.113293,0.0378 -0.134733,2.18498 -0.134733,13.49235 v 13.44744 l 6.288295,0.0491 6.28829,0.0491 0.28703,0.22581 c 0.15786,0.1242 4.18872,4.11301 8.95746,8.86402 l 8.67044,8.63819 h -15.01838 c -9.63034,0 -15.109736,0.0347 -15.273039,0.0968 l -0.254655,0.0968 0.02727,4.76492 0.02728,4.76491 -10.140822,-4e-5 c -6.695045,-2e-5 -10.140823,-0.0334 -10.140823,-0.0983 z"
           id="path864"
           inkscape:connector-curvature="0" />
        <path
           style="fill:#506175;fill-opacity:1;stroke-width:0.0982162"
           d="m -16.256282,192.57221 c -12.584388,0 -15.852565,0.0253 -15.889333,0.12283 -0.02544,0.0675 -0.05732,14.27697 -0.07068,31.57653 l -0.02429,31.4537 h 8.004644 8.004645 V 250.397 c 0,-4.83366 0.01472,-5.3281 0.158254,-5.3281 0.130935,0 8.2379187,7.68895 10.5286921,9.98575 l 0.6690008,0.67062 H 5.1575248 15.190397 l -0.307168,-0.27011 c -0.168983,-0.14856 -3.628197,-3.68966 -7.6870467,-7.86923 -5.1240285,-5.27643 -7.37055592,-7.65404 -7.34984932,-7.77859 0.0163913,-0.0987 3.51038892,-3.66854 7.76437812,-7.93306 l 7.7345259,-7.75377 v -7.76618 -7.76636 l -3.417126,-3.46532 c -1.879376,-1.90596 -5.4249805,-5.50951 -7.8791134,-8.00788 l -4.46198091,-4.54256 z m 7.7911753,15.8129 c 7.50829835,0 7.69845459,0.005 7.79764792,0.18992 0.11015566,0.20582 0.15155843,30.20932 0.0420849,30.49461 -0.0327826,0.0855 -0.11842438,0.15539 -0.19027107,0.15539 -0.11237596,0 -9.47820305,-9.11592 -13.96703605,-13.59441 l -1.497697,-1.49447 v -7.72013 c 0,-4.24612 0.02673,-7.79008 0.05953,-7.87552 0.05365,-0.13984 0.828599,-0.15539 7.7557443,-0.15539 z"
           id="path870"
           inkscape:connector-curvature="0" />
        <path
           style="fill:#506175;fill-opacity:1;stroke-width:0.0982162"
           d="m -42.086727,247.25621 -8.078283,-8.07548 v -23.36385 c 0,-21.26442 0.01396,-23.35849 0.155359,-23.30423 0.08544,0.0328 3.753818,0.0596 8.151943,0.0596 h 7.996588 v 31.38007 c 0,17.25905 -0.03317,31.37992 -0.07366,31.37972 -0.04051,-2e-4 -3.708887,-3.63433 -8.151943,-8.07585 z"
           id="path862"
           inkscape:connector-curvature="0" />
        <path
           style="fill:#506175;fill-opacity:1;stroke-width:0.0982162"
           d="m 248.1671,181.96493 -8.12766,8.12712 -8.12747,8.12729 v 23.30249 23.30267 l 7.882,-0.0252 7.88181,-0.0252 0.0254,-5.28583 c 0.025,-5.20524 0.0283,-5.28535 0.21976,-5.25455 0.10692,0.0172 2.63151,2.37374 5.61027,5.23674 2.97875,2.86301 5.47299,5.23877 5.54264,5.27954 0.0696,0.0408 4.5389,0.0629 9.93162,0.0491 l 9.80483,-0.025 -7.53814,-7.74927 c -4.14594,-4.2621 -7.53795,-7.81294 -7.53795,-7.89081 0,-0.0779 3.49067,-3.66219 7.757,-7.96526 l 7.75701,-7.82372 0.002,-7.74999 0.002,-7.75 -2.97778,-3.00475 c -1.63788,-1.65262 -5.15871,-5.22564 -7.82422,-7.94009 l -4.84631,-4.93533 h -7.71834 z m -0.39331,15.66544 h 7.80826 7.80808 l 0.025,15.49369 c 0.0239,14.90852 0.0181,15.49351 -0.1534,15.49351 -0.10383,0 -3.38313,-3.14472 -7.85808,-7.53545 l -7.68003,-7.53544 0.0252,-7.95807 z"
           id="path860"
           inkscape:connector-curvature="0" />
        <path
           style="fill:#506175;fill-opacity:1;stroke-width:0.0982162"
           d="m 289.63849,244.74964 -8.02918,-0.0257 v -31.2565 -31.25651 l 8.00485,8.0044 c 4.40267,4.40241 8.0379,7.99334 8.07828,7.97984 0.0404,-0.0135 0.0846,10.4723 0.0982,23.30179 0.0136,12.82949 -0.008,23.31556 -0.0491,23.30238 -0.0406,-0.0132 -3.68699,-0.0355 -8.10304,-0.0497 z"
           id="path856"
           inkscape:connector-curvature="0" />
        <path
           style="fill:#506175;fill-opacity:1;stroke-width:0.0982162"
           d="m 198.51841,221.30396 c 0,-22.95814 -0.003,-23.32448 -0.18998,-23.42456 -0.12629,-0.0676 -2.75213,-0.10167 -7.83252,-0.10167 h -7.64253 l 7.97961,-7.98007 c 4.38879,-4.38903 7.96867,-8.02426 7.95529,-8.07828 -0.0161,-0.0652 7.85567,-0.10654 23.43071,-0.12298 15.65016,-0.0165 23.4348,0.008 23.39422,0.0737 -0.0335,0.0541 -0.11357,0.0984 -0.17803,0.0984 -0.0645,0 -3.71907,3.60208 -8.12137,8.00462 l -8.00417,8.00462 h -6.74558 c -6.00138,0 -6.76259,0.017 -6.89991,0.15434 -0.13944,0.13944 -0.15434,2.40077 -0.15434,23.42456 v 23.27023 h -8.4957 -8.4957 z"
           id="path854"
           inkscape:connector-curvature="0" />
        <path
           style="fill:#506175;fill-opacity:1;stroke-width:0.0982162"
           d="m 159.96855,223.90666 c -11.81549,-11.64916 -20.78695,-20.42085 -20.87094,-20.40624 -0.12975,0.0226 -0.1503,1.33495 -0.1723,10.99996 -0.0137,6.03587 -0.058,10.97432 -0.0984,10.97432 -0.0404,0 -3.70859,-3.63533 -8.15153,-8.07851 l -8.07805,-8.0785 v -5.40189 -5.40189 l 8.28611,-8.28567 8.2861,-8.28567 4.26761,4.30813 c 2.34719,2.36947 8.30297,8.39638 13.23506,13.39313 4.9321,4.99675 9.03269,9.12273 9.11242,9.16884 0.0821,0.0475 0.18392,0.0449 0.23476,-0.006 0.0536,-0.0536 0.0795,-5.55748 0.0642,-13.66224 l -0.0256,-13.57244 h 7.36622 7.36621 l -0.0246,22.46696 c -0.0135,12.35683 -0.0356,26.47929 -0.0491,31.38324 l -0.0245,8.91628 z"
           id="path834"
           inkscape:connector-curvature="0" />
      </g>
    </g>
  </g>
</svg>
